<?xml version="1.0" encoding="utf-8"?>
<!-- Generator: Adobe Illustrator 17.0.0, SVG Export Plug-In . SVG Version: 6.00 Build 0)  -->
<!DOCTYPE svg PUBLIC "-//W3C//DTD SVG 1.1//EN" "http://www.w3.org/Graphics/SVG/1.1/DTD/svg11.dtd">
<svg version="1.1"
	 id="svg2" xmlns:cc="http://creativecommons.org/ns#" xmlns:dc="http://purl.org/dc/elements/1.1/" xmlns:inkscape="http://www.inkscape.org/namespaces/inkscape" xmlns:rdf="http://www.w3.org/1999/02/22-rdf-syntax-ns#" xmlns:sodipodi="http://sodipodi.sourceforge.net/DTD/sodipodi-0.dtd" xmlns:svg="http://www.w3.org/2000/svg"
	 xmlns="http://www.w3.org/2000/svg" xmlns:xlink="http://www.w3.org/1999/xlink" x="0px" y="0px" width="500px" height="500px"
	 viewBox="0 0 500 500" enable-background="new 0 0 500 500" xml:space="preserve">
<g id="layer1" transform="translate(0,-552.36218)">
	<path id="rect2990-1" fill="#AE1BCC" d="M250,552.362L250,552.362c138.071,0,250,111.929,250,250l0,0
		c0,138.071-111.929,250-250,250l0,0c-138.071,0-250-111.929-250-250l0,0C0,664.291,111.929,552.362,250,552.362z"/>
	<g id="layer1-9" transform="translate(-549.00515,80.294372)">
	</g>
	<g id="layer1-6" transform="translate(-575.71429,39.999999)">
	</g>
	<g id="layer1-61" transform="translate(332.85715,4.9999966)">
		<g id="g2994" transform="matrix(12.258419,0,0,12.258419,54.872837,607.69312)">
		</g>
		<g id="g2996" transform="matrix(12.258419,0,0,12.258419,54.872837,607.69312)">
		</g>
		<g id="g2998" transform="matrix(12.258419,0,0,12.258419,54.872837,607.69312)">
		</g>
		<g id="g3000" transform="matrix(12.258419,0,0,12.258419,54.872837,607.69312)">
		</g>
		<g id="g3002" transform="matrix(12.258419,0,0,12.258419,54.872837,607.69312)">
		</g>
		<g id="g3004" transform="matrix(12.258419,0,0,12.258419,54.872837,607.69312)">
		</g>
	</g>
	<path id="rect2989-7" display="none" fill="#FFFFFF" d="M249.9,682.312c0,0-67.152-0.021-111.925,3.45
		c-6.252,0.77-19.892,0.866-32.075,14.45c-9.583,10.363-12.7,33.875-12.7,33.875s-3.2,27.632-3.2,55.25v25.9
		c0,27.638,3.2,55.225,3.2,55.225s3.107,23.532,12.7,33.875c12.184,13.584,28.178,13.18,35.3,14.6
		c25.597,2.621,108.775,3.425,108.775,3.425s67.242-0.119,112.025-3.55c6.252-0.8,19.927-0.866,32.1-14.45
		c9.583-10.343,12.675-33.9,12.675-33.9S410,842.865,410,815.237v-25.875c0-27.628-3.225-55.275-3.225-55.275
		s-3.082-23.512-12.675-33.875c-12.174-13.584-25.848-13.68-32.1-14.45c-44.783-3.471-111.925-3.45-111.925-3.45L249.9,682.312
		L249.9,682.312z M210.025,742.312l100.05,60.025l-100.05,60.025L210.025,742.312L210.025,742.312z"/>
	<path fill="#FFFFFF" d="M147.052,895.51h12.818v2.578c0,23.681,20.99,42.94,46.79,42.94h20.752h99.036h8.904h8.38
		c25.807,0,46.798-19.26,46.798-42.94v-161.28c0-23.674-20.991-42.941-46.798-42.941h-12.817v-2.577
		c0-23.683-20.984-42.942-46.79-42.942h-17.283h-99.037h-20.752c-25.799,0-46.79,19.259-46.79,42.942v161.278
		C100.262,876.241,121.252,895.51,147.052,895.51z M343.731,707.924c17.387,0,31.477,12.932,31.477,28.884v161.28
		c0,15.951-14.09,28.885-31.477,28.885h-8.379h-8.904h-99.036H206.66c-17.38,0-31.47-12.933-31.47-28.885v-2.578v-14.057V736.807
		c0-15.953,14.09-28.884,31.47-28.884h20.752h88.189h10.847h4.465H343.731z M115.574,691.29c0-15.953,14.09-28.885,31.478-28.885
		h20.752h99.037h17.283c17.388,0,31.477,12.932,31.477,28.885v2.577h-88.189H206.66c-25.799,0-46.79,19.267-46.79,42.941v144.645
		h-12.819c-17.388,0-31.478-12.94-31.478-28.885V691.29z"/>
	<path fill="#FFFFFF" d="M201.424,751.701c-3.365,0-6.089,2.725-6.089,6.089c0,3.364,2.724,6.089,6.089,6.089h121.791
		c3.365,0,6.089-2.725,6.089-6.089c0-3.365-2.725-6.089-6.089-6.089H201.424z"/>
	<path fill="#FFFFFF" d="M220.667,799.164c0,3.365,2.733,6.089,6.097,6.089h114.127c3.365,0,6.098-2.725,6.098-6.089
		s-2.734-6.097-6.098-6.097H226.764C223.399,793.067,220.667,795.799,220.667,799.164z"/>
	<path fill="#FFFFFF" d="M314.477,840.53c0-3.365-2.726-6.089-6.089-6.089H201.424c-3.365,0-6.089,2.724-6.089,6.089
		c0,3.364,2.724,6.098,6.089,6.098h106.964C311.751,846.628,314.477,843.894,314.477,840.53z"/>
	<path fill="#FFFFFF" d="M340.891,875.815H240.656c-3.364,0-6.089,2.725-6.089,6.09c0,3.364,2.725,6.088,6.089,6.088h100.234
		c3.365,0,6.098-2.724,6.098-6.088C346.988,878.54,344.255,875.815,340.891,875.815z"/>
</g>
</svg>
