<?xml version="1.0" encoding="utf-8"?>
<!-- Generator: Adobe Illustrator 17.0.0, SVG Export Plug-In . SVG Version: 6.00 Build 0)  -->
<!DOCTYPE svg PUBLIC "-//W3C//DTD SVG 1.1//EN" "http://www.w3.org/Graphics/SVG/1.1/DTD/svg11.dtd">
<svg version="1.1"
	 id="svg2" xmlns:cc="http://creativecommons.org/ns#" xmlns:dc="http://purl.org/dc/elements/1.1/" xmlns:inkscape="http://www.inkscape.org/namespaces/inkscape" xmlns:rdf="http://www.w3.org/1999/02/22-rdf-syntax-ns#" xmlns:sodipodi="http://sodipodi.sourceforge.net/DTD/sodipodi-0.dtd" xmlns:svg="http://www.w3.org/2000/svg"
	 xmlns="http://www.w3.org/2000/svg" xmlns:xlink="http://www.w3.org/1999/xlink" x="0px" y="0px" width="500px" height="500px"
	 viewBox="0 0 500 500" enable-background="new 0 0 500 500" xml:space="preserve">
<g id="layer1" transform="translate(0,-552.36218)">
	<path id="rect2990-1" fill="#17CC24" d="M250,552.362L250,552.362c138.071,0,250,111.929,250,250l0,0
		c0,138.071-111.929,250-250,250l0,0c-138.071,0-250-111.929-250-250l0,0C0,664.291,111.929,552.362,250,552.362z"/>
	<g id="layer1-9" transform="translate(-549.00515,80.294372)">
	</g>
	<g id="layer1-6" transform="translate(-575.71429,39.999999)">
	</g>
	<g id="layer1-61" transform="translate(332.85715,4.9999966)">
		<g id="g2994" transform="matrix(12.258419,0,0,12.258419,54.872837,607.69312)">
		</g>
		<g id="g2996" transform="matrix(12.258419,0,0,12.258419,54.872837,607.69312)">
		</g>
		<g id="g2998" transform="matrix(12.258419,0,0,12.258419,54.872837,607.69312)">
		</g>
		<g id="g3000" transform="matrix(12.258419,0,0,12.258419,54.872837,607.69312)">
		</g>
		<g id="g3002" transform="matrix(12.258419,0,0,12.258419,54.872837,607.69312)">
		</g>
		<g id="g3004" transform="matrix(12.258419,0,0,12.258419,54.872837,607.69312)">
		</g>
	</g>
	<path id="rect2989-7" display="none" fill="#FFFFFF" d="M249.9,682.312c0,0-67.152-0.021-111.925,3.45
		c-6.252,0.77-19.892,0.866-32.075,14.45c-9.583,10.363-12.7,33.875-12.7,33.875s-3.2,27.632-3.2,55.25v25.9
		c0,27.638,3.2,55.225,3.2,55.225s3.107,23.532,12.7,33.875c12.184,13.584,28.178,13.18,35.3,14.6
		c25.597,2.621,108.775,3.425,108.775,3.425s67.242-0.119,112.025-3.55c6.252-0.8,19.927-0.866,32.1-14.45
		c9.583-10.343,12.675-33.9,12.675-33.9S410,842.865,410,815.237v-25.875c0-27.628-3.225-55.275-3.225-55.275
		s-3.082-23.512-12.675-33.875c-12.174-13.584-25.848-13.68-32.1-14.45c-44.783-3.471-111.925-3.45-111.925-3.45L249.9,682.312
		L249.9,682.312z M210.025,742.312l100.05,60.025l-100.05,60.025L210.025,742.312L210.025,742.312z"/>
</g>
<g>
	<path fill="#FFFFFF" d="M321.875,229.464c17.006,0,30.804-13.797,30.804-30.804s-13.797-30.804-30.804-30.804
		s-30.804,13.797-30.804,30.804S304.869,229.464,321.875,229.464z"/>
	<path fill="#FFFFFF" d="M375.781,126.786H124.219c-10.011,0-17.969,8.15-17.969,18.161v210.106
		c0,10.011,7.958,18.161,17.969,18.161h251.562c10.011,0,17.969-8.15,17.969-18.161V144.947
		C393.75,134.936,385.792,126.786,375.781,126.786z M309.618,253.658c-1.925-2.246-4.877-3.979-8.214-3.979
		c-3.273,0-5.583,1.54-8.214,3.658l-12.001,10.139c-2.503,1.797-4.492,3.016-7.38,3.016c-2.759,0-5.262-1.027-7.059-2.631
		c-0.642-0.578-1.797-1.669-2.759-2.631l-34.526-37.349c-2.567-2.952-6.417-4.813-10.717-4.813c-4.3,0-8.278,2.118-10.781,5.006
		l-81.18,97.93V154.83c0.642-4.364,4.043-7.508,8.407-7.508h229.551c4.428,0,8.022,3.273,8.278,7.701l0.193,167.109L309.618,253.658
		z"/>
</g>
</svg>
