<?xml version="1.0" encoding="utf-8"?>
<!-- Generator: Adobe Illustrator 17.0.0, SVG Export Plug-In . SVG Version: 6.00 Build 0)  -->
<!DOCTYPE svg PUBLIC "-//W3C//DTD SVG 1.1//EN" "http://www.w3.org/Graphics/SVG/1.1/DTD/svg11.dtd">
<svg version="1.1"
	 id="svg2" xmlns:cc="http://creativecommons.org/ns#" xmlns:dc="http://purl.org/dc/elements/1.1/" xmlns:inkscape="http://www.inkscape.org/namespaces/inkscape" xmlns:rdf="http://www.w3.org/1999/02/22-rdf-syntax-ns#" xmlns:sodipodi="http://sodipodi.sourceforge.net/DTD/sodipodi-0.dtd" xmlns:svg="http://www.w3.org/2000/svg"
	 xmlns="http://www.w3.org/2000/svg" xmlns:xlink="http://www.w3.org/1999/xlink" x="0px" y="0px" width="500px" height="500px"
	 viewBox="0 0 500 500" enable-background="new 0 0 500 500" xml:space="preserve">
<g id="layer1" transform="translate(0,-552.36218)">
	<path id="rect2990-1" display="none" fill="#CC9919" d="M250,552.362L250,552.362c138.071,0,250,111.929,250,250l0,0
		c0,138.071-111.929,250-250,250l0,0c-138.071,0-250-111.929-250-250l0,0C0,664.291,111.929,552.362,250,552.362z"/>
	<g id="layer1-9" transform="translate(-549.00515,80.294372)">
	</g>
	<g id="layer1-6" transform="translate(-575.71429,39.999999)">
	</g>
	<g id="layer1-61" transform="translate(332.85715,4.9999966)">
		<g id="g2994" transform="matrix(12.258419,0,0,12.258419,54.872837,607.69312)">
		</g>
		<g id="g2996" transform="matrix(12.258419,0,0,12.258419,54.872837,607.69312)">
		</g>
		<g id="g2998" transform="matrix(12.258419,0,0,12.258419,54.872837,607.69312)">
		</g>
		<g id="g3000" transform="matrix(12.258419,0,0,12.258419,54.872837,607.69312)">
		</g>
		<g id="g3002" transform="matrix(12.258419,0,0,12.258419,54.872837,607.69312)">
		</g>
		<g id="g3004" transform="matrix(12.258419,0,0,12.258419,54.872837,607.69312)">
		</g>
	</g>
	<path id="rect2989-7" display="none" fill="#FFFFFF" d="M249.9,682.312c0,0-67.152-0.021-111.925,3.45
		c-6.252,0.77-19.892,0.866-32.075,14.45c-9.583,10.363-12.7,33.875-12.7,33.875s-3.2,27.632-3.2,55.25v25.9
		c0,27.638,3.2,55.225,3.2,55.225s3.107,23.532,12.7,33.875c12.184,13.584,28.178,13.18,35.3,14.6
		c25.597,2.621,108.775,3.425,108.775,3.425s67.242-0.119,112.025-3.55c6.252-0.8,19.927-0.866,32.1-14.45
		c9.583-10.343,12.675-33.9,12.675-33.9S410,842.865,410,815.237v-25.875c0-27.628-3.225-55.275-3.225-55.275
		s-3.082-23.512-12.675-33.875c-12.174-13.584-25.848-13.68-32.1-14.45c-44.783-3.471-111.925-3.45-111.925-3.45L249.9,682.312
		L249.9,682.312z M210.025,742.312l100.05,60.025l-100.05,60.025L210.025,742.312L210.025,742.312z"/>
	<g id="Page-1">
		<g id="Social_icons" transform="translate(-822.000000, -1255.000000)">
			<g id="Coub" transform="translate(822.000000, 1255.000000)">
				<g id="Group-3" transform="translate(1.000000, 2.000000)">
					<g id="Clip-2">
					</g>
					<defs>
						<filter id="Adobe_OpacityMaskFilter" filterUnits="userSpaceOnUse" x="-1" y="550.362" width="500.043" height="500">
							<feColorMatrix  type="matrix" values="1 0 0 0 0  0 1 0 0 0  0 0 1 0 0  0 0 0 1 0"/>
						</filter>
					</defs>
					<mask maskUnits="userSpaceOnUse" x="-1" y="550.362" width="500.043" height="500" id="mask-2_1_">
						<g filter="url(#Adobe_OpacityMaskFilter)">
							<path id="path-1_1_" fill="#FFFFFF" d="M249.021,1050.355c133.465,0,241.66-108.195,241.66-241.66
								s-108.195-241.66-241.66-241.66S7.362,675.23,7.362,808.695S115.557,1050.355,249.021,1050.355L249.021,1050.355z"/>
						</g>
					</mask>
					<polygon id="Fill-1" mask="url(#mask-2_1_)" fill="#FFFFFF" points="-1,1050.362 499.043,1050.362 499.043,550.362 -1,550.362 
											"/>
				</g>
				<g id="Group-6">
					<g id="Clip-5" display="none">
					</g>
					<defs>
						<filter id="Adobe_OpacityMaskFilter_1_" filterUnits="userSpaceOnUse" x="0" y="552.362" width="500.043" height="500">
							<feColorMatrix  type="matrix" values="1 0 0 0 0  0 1 0 0 0  0 0 1 0 0  0 0 0 1 0"/>
						</filter>
					</defs>
					<mask maskUnits="userSpaceOnUse" x="0" y="552.362" width="500.043" height="500" id="mask-4_1_">
						<g filter="url(#Adobe_OpacityMaskFilter_1_)">
							<path id="path-3_1_" fill="#FFFFFF" d="M118.789,1015.181C47.518,971.139,0.029,892.297,0.029,802.362
								c0-138.067,111.926-249.993,249.993-249.993s249.993,111.926,249.993,249.993s-111.926,249.993-249.993,249.993
								c-6.626,0-13.192-0.258-19.688-0.764l24.592-67.565c4.069-11.179,17.651-26.155,29.629-39.374
								c6.857-7.547,12.768-14.076,15.025-17.912c10.888-18.542,44.096-74.24,44.431-74.804c6.824-9.787,17.776-26.52,24.527-37.441
								l36.876-59.91c6.745-10.951,7.256-24.696,1.137-30.628c-1.075-1.036-2.335-1.823-3.74-2.335
								c-6.761-2.461-15.745,1.529-22.36,9.927l-37.07,51.692c-4.287,5.447-9.083,9.914-13.724,14.239
								c-3.862,3.597-7.848,7.324-11.417,11.479l-3.787,4.428c-0.461,0.53-1.103,0.856-1.801,0.902
								c-0.699,0.046-1.361-0.041-1.966-0.261c-1.322-0.481-3.451-1.991-2.873-6.698c0.126-0.579,6.615-27.851-10.595-35.118
								l-0.752-0.286c-9.302-3.386-16.71,2.431-24.933,12.212c-1.237,1.469-3.766,1.607-5.042,1.143
								c-2.521-1.044-3.635-3.279-3.05-5.878c2.934-13.122-2.476-25.394-12.864-29.175l-0.8-0.266
								c-9.04-2.901-19.948,0.814-26.49,9.065c-0.242,0.297-0.524,0.536-0.856,0.703c-1.299,1.24-3.53,2.964-5.956,2.081
								c-2.598-0.946-3.216-4.108-3.45-6.409l-0.292-2.854c-0.282-2.826-0.645-6.086-1.059-9.588
								c-1.3-11.445-2.922-25.695-2.663-35.16l3.987-67.267c0.277-9.824-4.243-18.197-11.241-20.744
								c-1.974-0.719-4.051-0.943-6.178-0.674c-9.893,1.272-18.39,12.488-19.355,25.539l-7.342,68.01
								c-0.509,6.884-0.349,16.502-0.191,25.799c0.118,6.901,0.229,13.417,0.066,18.682l-0.64,21.691
								c-0.229,7.306-2.561,12.544-6.944,15.566c-2.417,1.701-10.55,7.546-19.345,15.747c-0.966,0.902-1.943,1.76-2.901,2.609
								c-6.492,5.752-12.091,10.722-12.63,27.22c-0.284,7.748,0.075,15.625,1.192,27.195c1.166,12.147,4.756,19.768,8.564,27.833
								c5.425,11.494,16.075,28.578,8.904,48.282C144.899,943.444,127.607,990.955,118.789,1015.181L118.789,1015.181z"/>
						</g>
					</mask>
					<polygon id="Fill-4" mask="url(#mask-4_1_)" fill="#0043FF" points="0,1052.362 500.043,1052.362 500.043,552.362 0,552.362 
											"/>
				</g>
			</g>
		</g>
	</g>
</g>
</svg>
